<?xml version="1.0" encoding="utf-8"?>
<!-- Generator: Adobe Illustrator 18.0.0, SVG Export Plug-In . SVG Version: 6.00 Build 0)  -->
<!DOCTYPE svg PUBLIC "-//W3C//DTD SVG 1.1//EN" "http://www.w3.org/Graphics/SVG/1.1/DTD/svg11.dtd">
<svg version="1.1" id="Layer_1" xmlns="http://www.w3.org/2000/svg" xmlns:xlink="http://www.w3.org/1999/xlink" x="0px" y="0px"
	 viewBox="0 0 164.6 55.6" enable-background="new 0 0 164.6 55.6" xml:space="preserve">
<g>
	<g>
		<path fill="#BEC8D1" d="M71.5,15.5c0.3-0.6-0.1-1.1-0.7-1.1H1.2c-0.6,0-1,0.5-0.8,1.1l1.7,5c0.2,0.6,0.9,1.1,1.5,1.1l62.7,3
			c0.6,0,1.4-0.4,1.6-1L71.5,15.5z"/>
	</g>
	<g>
		<path fill="#BEC8D1" d="M10.5,35.4c-0.6-0.1-1.3,0-1.4,0.1c-0.2,0.2,0.6,0.6,1.2,0.8l44,14.8c0.6,0.2,1.3-0.1,1.6-0.7l3.1-7.1
			c0.3-0.6,0-1.1-0.7-1.2L10.5,35.4z"/>
	</g>
	<g>
		<path fill="#BEC8D1" d="M93.8,14.4c-0.6,0-0.9,0.5-0.7,1.1l3.6,8.2c0.3,0.6,1,1,1.6,1l62.7-3c0.6,0,1.3-0.5,1.5-1.1l1.7-5
			c0.2-0.6-0.2-1.1-0.8-1.1H93.8z"/>
	</g>
	<g>
		<g>
			<path fill="#BEC8D1" d="M84.4,2.1c-0.3-0.6-0.9-1.3-1.5-1.6l-1.1,0c-0.6,0.3-1.2,1-1.5,1.6L69.3,26.5c-0.3,0.6-1,1-1.6,1
				L4.5,24.2c-0.6,0-0.9,0.4-0.7,1l2.7,6c0.3,0.6,1,1.1,1.6,1.2l54.4,6.5c0.6,0.1,0.9,0.6,0.7,1.2l-5,11.3c-0.3,0.6,0,1.2,0.6,1.4
				l5,1.5c0.6,0.2,1.1,0.3,1.1,0.3c0,0,0.5,0.1,1.1,0.3l1.5,0.4c0.6,0.2,1.3-0.2,1.5-0.8l4.5-13.2c0.2-0.6,0.9-1,1.5-1l6.2,0.7
				c0.6,0.1,1.7,0.1,2.3,0l5.9-0.6c0.6-0.1,1.3,0.4,1.5,1l4.6,13.2c0.2,0.6,0.9,0.9,1.5,0.7l0.8-0.2c0.6-0.2,1.1-0.3,1.1-0.3
				c0,0,0.5-0.1,1.1-0.3l5.6-1.7c0.6-0.2,0.9-0.8,0.6-1.4l-5-11c-0.3-0.6,0-1.1,0.7-1.2l54.8-6.1c0.6-0.1,1.3-0.6,1.5-1.2l2.4-6.6
				c0.2-0.6-0.1-1.1-0.8-1l-63.1,3.5c-0.6,0-1.4-0.4-1.6-1L84.4,2.1z M82.4,15c0.1,0,0.3,0.3,0.3,0.3c0.3,0.6,0.4,0.7,0.1,0.4
				C82.6,15.3,82.4,15,82.4,15C82.4,15,82.4,15,82.4,15z M82.4,15.1l-0.7,1.1C82,15.5,82.3,15.1,82.4,15.1z M83.7,28.3
				c-0.6,0-1.7,0-2.3,0l-2.2-0.1c-0.6,0-1-0.6-0.8-1.2L82,16.2c0.2-0.6,0.4-1.1,0.4-1.1s0.2,0.5,0.4,1.1L86.4,27
				c0.2,0.6-0.2,1.1-0.8,1.2L83.7,28.3z"/>
		</g>
	</g>
	<g>
		<path fill="#BEC8D1" d="M156.2,35.9c-0.2-0.2-0.8-0.2-1.4-0.2l-48,5.6c-0.6,0.1-0.9,0.6-0.7,1.2l3.1,7.1c0.3,0.6,1,0.9,1.6,0.7
			L155,36.6C155.6,36.5,156.4,36,156.2,35.9z"/>
	</g>
</g>
</svg>
